<?xml version="1.0" encoding="UTF-8"?><svg id="Layer_0_Image" fill="#dedede" data-name="Layer 0 Image" xmlns="http://www.w3.org/2000/svg" viewBox="0 0 800 600" x="0px" y="0px" width="800px" height="600px" version="1.1" xmlns:xlink="http://www.w3.org/1999/xlink"><title>1</title><path d="M664.143,309.842c-.191.532-.67,1.865-1.274,3.544l1.916.919c.408,1.482,2.664,3.051,1.291,5.058-1.234,1.805,2.027,3.711-.464,5.175.423,3.785-2.242,6.517-4,9.162-1.593,2.4-1.981,5.392-4.389,7.476-2.1,1.814-3.272,4.689-4.862,7.105l-4.444.2c.321,1.025.561,1.794.94,3.006l-2.116,2.387c.526,1.618,1.022,3.139,1.6,4.925-.827.942-1.648,1.878-2.546,2.9l2.493.888-3.46,2.455,1.081,1.264c-3.792,1.409-7.169-1.988-11.351-.347-2.584,1.864-4.5,5.666-8.338,7.072-1.481.543-.216,3.257-2.753,2.937-.9-.113-.235,2.794-2.353,2.229-.79,2.634-3.138,3.694-5,5.352a28.193,28.193,0,0,0-4.182,4.956c-1.032,1.493-2.138,2.937-3.231,4.387a40.715,40.715,0,0,0-2.965,3.932c-.694,1.2-.637,3.261-1.571,3.8a4.159,4.159,0,0,0-2.392,3.221l-2.756-1.644c-2.366,1.16-4.737,2.26-7.1-.635v-6.014C587.4,393,582.663,390.774,580.542,385c.166-1.9-.758-4.6,1.073-6.826-2.659-5.31-.35-9.8,2.21-14.232a56.737,56.737,0,0,1,11.866-14.07c-2.788-4.181-5.7-8.077-8.077-12.277-1.633-2.887-3.44-6.039-3.53-9.342-.094-3.425-1.169-7,.871-10.468.913-1.554.037-3.808,1.058-5.855a18.942,18.942,0,0,1,1.939-3.778c.511-.637.487-1.7.908-3.392.943-.875,3.309-2.054,3.8-3.77.714-2.491,3.9-1.541,3.857-4.455l1.757,1.332,4.367-1.289,1.623,3.072c-1.14,2.065-2.387,4.321-3.82,6.915l6.887-.685,1.616,1.616c-.762,1.5-1.534,3.017-2.552,5.019l4.919.5c-.424,2.025-.85,4.056-1.268,6.053-.73.652-1.52,1.356-2.334,2.084.515.515.727.79.774.764.749-.414,1.477-.867,2.365-1.4l.727,1.935-4.921,2.491,2.66.888c-1.364,1.368-2.576,2.582-4.157,4.166l5.713,4.514c2.821.537,5.082-.653,7.3-2.568,5.127-4.426,10.764-8.289,15.814-12.737,5.173-4.557,10.672-9.019,14.354-15.124.861-1.428,2.376-2.46,3.674-3.759h6.028l1.485,1.878c-.658,1.88-1.335,3.816-2.217,6.333l5.24-1.441Z"/><path d="M300.616,430.483l-5.36,1.661,1.2-2.575c-1.314-1.981-2.8-3.753-5.523-3.36-.209-.8-.344-1.32-.532-2.039h-4.732c-.473-.472-.882-.7-.99-1.02-.725-2.185-.879-4.781-2.194-6.494-1.693-2.2-.849-4.366-.928-6.5-.065-1.734.634-3.508,1.062-5.248a75.938,75.938,0,0,1,6.906-17.752,92.887,92.887,0,0,1,6.209-10.02c2.224-3.122,4.83-5.972,7.346-9.035-.683-.436-1.431-.946-2.209-1.406a99.625,99.625,0,0,1-20.195-16.244c-2.88-2.929-2.9-6.858-3.738-10.475a20.717,20.717,0,0,1-.055-4.569c1.541-2.935,4.643-3.185,7.653-4.381l3.232,5.686,1.2-.887c.392.389,1.083.767,1.278,1.319,1.2,3.4,3.979,5.137,6.933,6.613,6.012,3,12.082,5.893,18.539,9.029,1.509-1.6,3.02-4.045,5.213-5.27,2.021-1.13,2.124-4.363,5.275-4.052l-1.228-1.509,3.309-2.313,1.73-3.815,3.184-.185-1.292-1.666c2.431-.356,2.594-2.872,4.125-4.226,1.617-1.43,2.761-3.395,4.294-5.36L341.7,325.4c.3-.7.577-1.364.929-2.193l1.484,1.2c.749-4.021,3.03-7.247,5.454-10.15,2.5-2.991,4.745-6.425,8.831-8.426l1.976,1.625c-1.615,3.1-3.179,6.178-6.489,7.8v4.581c.783-.19,1.579-.157,1.744-.463a31.382,31.382,0,0,0,1.4-3.21l7.753-6.387c.158,2.142.262,3.538.361,4.879l-2.19.9c.176.247.4.72.515.7,1.39-.286,2.765-.647,4.457-1.066.479.844,1.063,1.871,1.65,2.906l-1.1,1.215c.24,1.66,2.234,3.123.691,5.026l-1.257-1.139c-.188.354-.556.731-.481.969a15.981,15.981,0,0,0,1.044,2.156c-.314,2.907-2.639,4.842-4.8,6.806-2.04,1.857-4.286,3.489-6.912,5.6l3.075,1.771c-.66,1.266-1.059,2.03-1.479,2.834l1.176,1.294-3.8.615c.411,1.046.761,1.934,1.166,2.964h-3.815c-.707,1.452-1.325,2.719-1.913,3.926.546.587.928,1,1.479,1.59l-3.744.7c.372.973.708,1.853,1.106,2.9l-3.408.5,1.275,3.431-3.889-1.51c-.618,1.177-1.248,2.379-1.861,3.546.217.415.3.872.562,1.012.457.247,1.073.2,1.524.454,1.753.977,2.163,3.247,3.887,4.22,1.86,1.05,2.668,2.851,3.853,4.456,1.067,1.445,1.858,2.663,1.738,4.493-.041.626.518,1.291.863,2.074-.3.515-.734,1.248-1.324,2.252-1.547.177-2.674,2.251-5.5,1.156a64.23,64.23,0,0,0-15.428-4.272c-.3-.035-.544-.509-1.032-1-1.568,1.767-3.123,3.521-5.076,5.724-.025.207-.131,1.109-.246,2.083l-3.778.593,3.081,4.328-3.406-1-1.24,1.468c.663,1.834.128,2.954-2.019,4.175l-1.775,6.384-2.212.816,1.254,1.253c-1.711,1.31-3.676,2.372-5,3.964-1.2,1.435-1.7,3.452-2.631,5.484.092.138.468.7,1.064,1.593l-3.695,3.805,1.4,1.745c-.842.961-1.671,1.909-2.591,2.961v3.339Z"/><path d="M441.488,453.311c2.648,3.2,2.65,3.208,5.859,1.433a16.982,16.982,0,0,0,.282,2.741,6.193,6.193,0,0,0,.972,1.574l-1.023,1.022,2.816,1.318c-1.3,1.856-2.531,3.6-3.758,5.353,1.581,2.844-1.763,3.347-2.244,4.871-.743,2.354-3.6,2.858-3.684,5.374-.1,2.931-3.1,3.292-4.409,5-1.135,1.485-3.151,2.455-3.411,4.349l1.394,2.39-4.651,2.634-3.575,1.689-3.622,4.274v1.122L411.4,506.572l2.96,1.512c-1.576,2.2-3.169,4.432-4.883,6.83l12.811,4.371-1.263,2.535,5.712,2.037v2.491l3.557,3.268c.07,1.347.137,2.631.2,3.86l2.077,2.078-5.27,4.384c-1.242,1.382-2.535,1.127-3.925.2a2.813,2.813,0,0,0-1.527-.428c-5.917.131-11.263-2.122-16.643-4.089-3.969-1.45-7.791-3.3-11.908-5.079-1.122,1.12-2.874,1.969-3.1,4.279l-7.1,1.683c-1.178-1.191-2.116-2.141-3.057-3.094l1.273-1.4-1.544-3.207-4.868.752c-.844-1.673-1.607-3.183-2.386-4.726l-.746.747c-1.268-1.287-2.546-2.583-4.309-4.374.548-3.972-2-8.537-1.312-13.47a4.589,4.589,0,0,0-1.481-3.312c-3.38-3.172-3.524-7.754-5.114-11.656a15.651,15.651,0,0,1-1.307-5.178c-.087-2.861-.421-5.8.069-8.573.773-4.392,1.6-9.076,6.719-10.8a39.423,39.423,0,0,1,5.782-1v8.933l5.172-3.331c.269.788.591,1.73.913,2.671l.861-.656v5.273l2.369-1.2c2.43,2.126,2.368,4.848,2.033,7.647l2.535.9c-.453,1.226-.9,2.445-1.45,3.919.661-.121.993-.086,1.179-.234.446-.354.751-.984,1.239-1.169,4.892-1.859,7.354-7.059,12.265-8.868.988-3.555,4.736-4.315,6.928-6.711,2.278-2.49,5.494-4.111,8.242-6.189,2.662-2.012,4.162-5.4,7.634-6.467a24.807,24.807,0,0,1,9.649-9.649c-.141-2.811,3.726-3.161,3.636-6.128h5.166l1.449,1.449c-2.473,1.231-3.376,3.619-4.956,6.142,3.421.709,5.39-3.455,8.615-1.535Z"/><path d="M428.2,392.766c-.268-2.679,3.5-2.971,1.717-5.467l-1.267,1.125c-.136-.135-.368-.256-.391-.407-.425-2.806-.254-5.469,1.738-7.755,2.19-2.513,4.361-5.046,6.462-7.633a22.521,22.521,0,0,0,1.726-2.99c-1.037-2.7-2.459-5.506-3.694-8.292-1.326-2.991-1.3-6.234-2.737-9.193-.766-1.573,1.232-4.329.763-6.253-.525-2.155-1.8-3.986.06-6.014.038-5.675,3.9-9.212,7.272-13.154h9.541l2.007,1.9-4.511,5.749c.18.383.608,1.3,1.184,2.52.538,0,1.566.309,1.935-.054,1.593-1.566,3.435-.933,5.115-1.118l1.711,3.71-3.1,3.869,5.2.664v5.49c3.869.126,4.293-4.56,7.55-4.541,1.481-2.252,3.637-3.82,5.581-5.614,2.242-2.07,4.373-4.263,6.486-6.467,1.946-2.029,3.918-4.052,5.667-6.247,1.8-2.259,3.342-4.722,4.382-6.213l5.357-1.919a8.4,8.4,0,0,1,1.658,2.5c.174.724-.4,1.688-.792,2.472a6.221,6.221,0,0,0-1.045,3.265l5.179-2.185,3.624,7.058a12.275,12.275,0,0,0,.03,2.166,18.25,18.25,0,0,0,.783,2.783l-1.03,1.8,1.306,1.406c-3.319,5.315-6.306,10.815-9.945,15.958-3.056,4.319-2.627,4.622-4.868,5.845l1.009,1.117L476.28,377.882v1.9l10.676,6.8-1.341,2.637c1.373,1.178,2.294,3.444,4.95,2.609l1.523,3.026c-.336.467-.751,1.044-1.32,1.837l4.121,4.127-1.484,3.826,1.216,2.09c-.2.435-.265.884-.516,1.049-.56.368-1.39.44-1.8.905-2.464,2.782-2.9,2.937-6,1.878-4.014-1.372-8.328-2.178-11.993-4.179-4.911-2.681-9.324-6.273-14.4-9.783a52.76,52.76,0,0,0-6.821,6.2,20.051,20.051,0,0,1-9.239,5.479l1.649-2.731-6.846,1.276q-.181-.369-.365-.738l3.865-3.015-1.992-1.992H436.25c-.52-1.309-1.1-2.774-1.785-4.5h-4.746Z"/><path d="M453.048,280.366l-6.144,1.473c-2.511-1.855-5.51-4.166-8.609-6.335-3.695-2.586-6.905-5.877-11.122-7.7-.976-.422-2-.727-3.36-1.213-1.643-2.465-1.834-7.04-6.66-6.536-2.182-1.994-2.448-5.461-5.639-5.8-1.044-1.779-1.7-3.814-3.075-5.085-6.261-5.807-10.792-12.784-14.69-21.2-.337-2.6-.339-6.063-.9-9.536-.883-5.472,2.032-10.17,6.771-13.2,1.307-.836,1.984-2.675,4.157-2.479,1.513.136,3.11-.668,5.116-1.162l2.376,2.111c-1.616,2.711-4.669,4.424-4.9,8.067,3.595,1.2,5.2-2.794,8.821-3.255l1.961,1.752c-1.282,1.922-2.145,3.215-3.735,5.6,2.472-.782,4.23-.794,4.879-1.649,1.641-2.163,4.292-3.03,5.833-5.437,1.435-2.242,3.788-3.913,6.193-5.475,3.4-2.208,6.157-5.381,9.345-7.948,4.686-3.773,9.078-7.907,14.3-11.041,2.064-1.239,3.592-3.393,5.305-5.188,1.56-1.635,4.036-2.35,4.525-4.785h7.7v4.969l-1.844,1.845c1.021-.182,2.04-.327,3.039-.553,1.018-.231,2.017-.543,3.558-.965-.235,3.7-.056,6.975,2.616,9.36l-1.533,2.068,3.52,1.929-3.268.894a11.844,11.844,0,0,1,.906,2.155,11.094,11.094,0,0,1,.034,2.27c-2.123,2.915-4.248,5.83-6.581,9.032l-2.658.291.975,1.351c-.343.82-.724,1.728-1.149,2.742-5.042-.243-5.077,4.949-8.194,6.972l1.136,1.5-6.278,6.277c.169.156-.1-.092.015.014l-2.881,2.882-.941-.734v3.015l-1.92-1.58c.19,1.287.317,2.142.5,3.343l-5.014,6.5-1.917-1.41c-2.063,2.411-4.177,4.884-6.312,7.38l2.684,1.333-2.743,3.478c.135.464.134.893.348,1.132,3.488,3.91,7.626,7.409,10.347,11.79C451,268.555,454.83,273.649,453.048,280.366Z"/><path d="M532.526,197.548l.9-.9a5.906,5.906,0,0,0-.624-.793c-1.486-1.356-3.36-2.517-4.564-3.845-1.176-1.3-2.5-2.286-3.688-3.476-1.587-1.581-3.355-3.846-3.439-5.882-.149-3.641-.371-7.294.494-11.111,1.5-6.588,4.945-11.577,9.516-16.13,5.8-5.777,11.583-11.574,17.672-17.663-2.312-1.988-2.429-5.743-6.089-6.475q-2.3-4.482-4.605-8.966c-1.418-2.758-1.165-5.734-1.147-8.682.012-2.1,0-4.2,0-6.3l5.758-7.347h9.544l-4.122,7.037c3.53,2.561,4.826-2.989,7.925-1.3,1.936,2.65-1.665,3.895-2.805,6.46l5.047-1.213a8.771,8.771,0,0,1-1,7.662l2.325.9c.661.709-.714.812-.945,1.859l3.424,5.241c9.452-9.918,21.5-16.567,28.875-27.9h5.745c-.442,1.892-.828,3.542-1.356,5.8l4.508-1.589v4.445l1.954.511a3.718,3.718,0,0,1,.412.969c.068.564-.075,1.16.033,1.712,1.165,5.949-1.8,10.668-4.9,15.126-3.362,4.823-7.264,9.268-11.209,14.228,2.815,3.38,7.315,5.023,11.278,8.178l.334,2.409c1.049,1.313,2.747,2.583,3.228,4.212,1.054,3.575,3.663,6.9,1.89,11.512-.431.2-1.386.668-2.363,1.083s-1.969.772-3.074,1.2c-1.516-1.541-4.944-1.051-4.481-4.051l-9.56-2.765-2-3.478h-6.327c-.161-.682-.284-1.2-.436-1.84-2.339-1.8-4.305.321-5.671.687l-4.881,5.655-1.45-1.1-2.292,3.238.6.769c-2.657.666-2.887,3.334-4.055,5.53l-2.444-1.508c-.158.988-.313,1.953-.5,3.1l-1.83.495c-.246,2.322-.576,5.148-4.017,4.378-1.155,1.5-3.091,2.89-2.96,4.048.4,3.485-2.522,5.152-3.319,7.875-.374,3.443-.322,3.441.748,5.741a22.222,22.222,0,0,1-8.541,4.15C533.619,198.925,533.147,198.331,532.526,197.548Z"/><path d="M197.524,132.828l-3.367.418,1.634,1.81c-1.421,2.645-4.116,4.23-5.944,6.544.269.269.539.538.895.9l-4.153,3.257c-.685,1.8.776,3.841-1.632,4.956,2.135,1.433,4.085,2.709,6,4.033,6.014,4.154,12.447,7.719,17.4,13.313,2.84,3.2,5.514,6.3,5.565,10.9.009.774.8,1.54,1.425,2.677l-5.378,3.4c-11.432-6.7-23.251-12.669-34.092-21.416-.777.442-2.476.816-2.789,1.688-1.24,3.454-3.674,5.877-6.149,8.349-.3.3-.189,1.019-.27,1.549l-3.339.364c.264.906.488,1.676.881,3.022a15.12,15.12,0,0,0-4.719,8.005c-.5,1.98-2.4,3.6-4.1,6v12.448l-3.011.19c-.22.62-.455,1.283-.737,2.08H147.7l-1.982-5.74-3.5,1.537c-.271-.833-.483-1.483-.694-2.133-.326-.136-.682-.434-.972-.379a3.939,3.939,0,0,1-4.383-2.9c-1.215-5.309-4.652-10.56-1.353-16.261.061-5.647,3.567-9.955,5.554-14.864.648-1.6,3.438-1.322,2.682-4.091-.311-1.139,1.757-2.943,2.773-4.423a43.647,43.647,0,0,1,2.851-3.96c1.245-1.438,2.76-2.644,3.995-4.09a47.346,47.346,0,0,0,2.826-4.089c-6.96-5.229-11.219-12.656-16.1-19.582-1.563-6.7-4.266-13.207-3.211-21.052l5.886-6.764c2.454.506,5.212-1.016,7.453,1.54-1.468,1.979-2.926,3.943-4.4,5.927l1.153,1.228c3.11.644,4.248-3.882,7.5-2.833l1.466,2.85-3.344,2.146,1.812,1.812c1.622-1.678,3.2-1.7,5.1.6-.174,1.279.819,3.126-1.095,4.616l2.682,1.287-2.554,3.433,2.825,1-2.94.793c.112.93-.113,2.2.417,2.916,2.193,2.949,4.614,5.728,7.206,8.88,1.429-1.282,2.525-2.234,3.586-3.223,6.27-5.845,11.513-12.853,19.287-16.99-.042-2.153,2.212-2,3.183-3.154,1.1-1.3,2.318-2.507,3.105-3.348h3.851c-1.746,2.568-4.72,4.021-3.75,7.721l7.886-4.7c-.264,1.7-.468,3-.7,4.487l4.234,2.143-1.2,2.485,1.664.346c.056.222.274.6.169.744-1.393,1.881-3.262,3.545-4.149,5.63C201.406,129.471,198.95,130.65,197.524,132.828Z"/><path d="M302.088,191.3c4.565-5.6,8.418-10.255,12.192-14.974a104.874,104.874,0,0,0,9.411-14.244l-1.289-1.588,2.949-3.351h3.774c1.412,1.412,2.549,3.426,4.163,3.939,1.973.627,2.252,2.2,3.048,3.382,2.76,4.081,4.679,8.224,2.558,13.543q-1.956,4.9-3.982,9.8c-.408.981-.706,2.007-1.223,3.5l-2.9,2.894v3.6l-6.21,11.261c2.85,1.938,5.477,3.8,8.182,5.547,5.36,3.455,9.793,7.746,12.441,13.642a42.186,42.186,0,0,1,1.424,4.661c-.2.451-.7,1.562-1.251,2.779l-3.452,1.607c-2.694-.929-5.075-1.626-7.352-2.572s-4.454-2.142-6.674-3.229c-.378-3.318-4.159-1.977-5.714-4.233-1.277-1.851-4.118-2.624-6.609-4.075a184.449,184.449,0,0,0-20.072,24.7c-.463.672-.315,1.766-.449,2.664-2.63,2.025-5.232,1.715-7.839-.125v-1.821l-10.044-6.017c-1.664-1.949-.819-5.011-1.9-7.381-1.206-2.639-.186-5.194-.645-7.133,3.789-8.447,8.274-15.844,14.695-22.229v-3.9c-3.711-2.586-6.017-6.617-8.353-10.57-.783-1.326-.905-3.055-1.264-4.615-.73-3.172-1.821-6.24-1.723-9.609.186-6.444,3.846-11.043,10-13.355,3.881-1.458,7.65-.724,11.821-1.135-2.246,4.651-7.625,4.253-10.769,8.148,5.423-.239,8.727-5.348,14.258-4.371-.214,1.3-.43,2.605-.657,3.978l3.938,1.394v7.274c-1.475,2.572-3.1,5.14-4.417,7.853C301.729,187.817,302.088,189.072,302.088,191.3Z"/><path d="M398.889,119.992l-6.267,7.86V135.2l-6.189,2.489c-2.615-2.542-3.677-5.915-4.515-9.1l-3.585,1.33c-1.156-1.661-2.561-3.128-3.319-4.876-2.269-5.236-2.089-10.828-1.839-16.09l2.857-6.522c-1.584-.237-2.986-.016-3.569-.605-3.7-3.74-7.353-7.547-10.745-11.566-1.829-2.166-3.756-4.617-4.483-7.258-1.064-3.865-1.09-8.016-1.592-12.331,1.744-2.452,3.161-5.323,5.376-7.3,2.035-1.818,4.928-2.676,8.067-4.274l2.163,2.336-6.014,5.793,1.406,1.406c2.562-1.868,5.11-4.312,9.275-2.7l-3.254,4.452,4.459-1.736,2.351,3.549-4.317,4.322,2.352.485c-1.3,2.188-.565,5.216-3.911,6.334,3.32,4.085,7.017,6.336,10.769,8.829l37.5-31.1h5.527c-.967,1.942-1.737,3.491-2.516,5.056,1.659,1.267,2.972-.154,4.443-.794,4.246,3.965,5.248,8.912,4.373,14.433l-5.427,6.963,1.151,1.065-2.983.382,1.152,1.24h-2.131c-3.925,7.386-10.561,12.412-15.419,19.144,6.657,3.708,14.109,6.469,21.155,10.667.212,1.06.453,2.261.738,3.68l2.139-2.264c2.837.383,2.779,3.642,5.156,4.835,2.086,1.047,3.3,3.823,4.923,5.861v6.8l-1.847,1.847c-5.9-.63-10.775-3.992-16.145-6.71l-.683.618c-3.757-.929-6-4.96-10.334-4.359-2.02-2.6-5.343-2.8-7.937-4.331C404.581,123.654,402.042,121.977,398.889,119.992Z"/><path d="M565.708,211.511l3.478,1.964-1.011,6.06c.961,1.668,1.764,4.206,4.68,5.232,1.3-1.819,2.1-3.9,4.613-4.918,1.762-.714,2.8-3.226,4.149-4.942,1.484-1.887,3.546-3.176,4.717-5.477.984-1.934,3.1-3.259,4.429-5.06a68.889,68.889,0,0,0,3.6-5.974h6.458c.34,1.811.9,3.6-1.233,5.47l4.566.208c.582,2.673,1.109,5.09,1.624,7.457l-2.361.922a7.173,7.173,0,0,0,.258,1.538c1.6,3.943,1.335,5.295-1.735,8.339a4.5,4.5,0,0,0-1.295,4.476c.82,1.937-1.641,1.192-.479,2.98l-2.284-1.884v3.19l-3.5.669v3.132l-3.364,3.5,5.374,5.26v4.314l3.85,3.856-1.136,2c.6,1.217,1.339,2.717,2.291,4.651l-3.486,7.275h-4.775l-16.33-9.351-2.355,3.638-3.071-1.5v5.333l-5.242-1.951,1.694,2.311-3.918,3.684-.817-4.939,2.285-.79c.081-.43.18-.952.3-1.589l-2.061-.71c.248-1.012.5-2.031.922-3.763l-1.714,1.571-7.176-1.343-1.431-2.752c.431-1.675.922-3.578,1.421-5.519l3.963.658.176-.631-4.277-2.149,2.325-4.8c-3.769-6.4-7.874-12.441-10.2-19.394-1.394-4.79.254-9.523.942-14.235.536-3.666,3.568-6.257,6.885-8.113.472-.264.921-.569,1.675-1.039h5.7l2.278,2.279-2.938,2.935v3.523l3.86-1,2.317,2.166C567.385,209.465,566.585,210.442,565.708,211.511Z"/><path d="M221.208,270.345l1.952,1.952-10.491,8.969.238.6a6.188,6.188,0,0,0,2.188-.69c1.006-.843,1.8-1.938,3.185-2.21l7.273-4.108c2.075,1.678.562,3-.331,5.04l3.185-1.21,1.5,1.494c0,2.289,0,4.579,0,6.895l-2.068,2.021c.105.265.133.629.326.774,1.3.976,2.6,1.965,3.978,2.834,1.476.933,3.543,1.2,3.6,3.59.006.276.472.586.779.8a21.683,21.683,0,0,1,3.518,2.485,23.777,23.777,0,0,1,2.47,4.088c0,.968,0,2.494,0,4.02l-2.68,2.679-21.5-7.681-5,2.667-.214-.348c-1.485,1.484-2.97,2.969-4.866,4.866-.028.45-.083,1.337-.153,2.466l-8.7,8.369c-1.275,3.955-.626,8.017-5.9,8.852-1.09-1.743-5.005-2.023-4.114-6.087l-3.865-1.122c-.33.22-.919.615-1.38.922-1.473-1.559-2.762-2.923-4.633-4.9-.418-3.572-.953-8.145-1.515-12.956,4.757-5.145,9.444-10.213,14.419-15.592a58.886,58.886,0,0,1-5.67-3.614,64,64,0,0,1-4.939-4.862l1.432-4.635-2.426-.835v-3.87L182,270.814l5.483-1.092,17.866,10.023C211.386,277.45,215.3,272.155,221.208,270.345Z"/></svg>